# xmcd
#
# Track frame offsets:
#	150
#	14060
#	30297
#	48582
#	68164
#	81185
#	94939
#	107946
#	124423
#	141265
#	158111
#	176478
#	192616
#	209545
#	223973
#	240875
#	257461
#	274256
#	288858
#	305078
#	326124
#
# Disc length: 4547 seconds
#
# Revision: 0
# Processed by: cddbd v1.5.2PL0 Copyright (c) Steve Scherf et al.
# Submitted via: audiograbber 1.83.01
#
DISCID=4511c115
DTITLE=Various Artist - ERG NCT 177
DYEAR=2009
DGENRE=Country
TTITLE0=Alan Jackson - Sissy's Song
TTITLE1=Crystal Shawanda - Dawn Of A New Day
TTITLE2=John Rich - Shuttin' Detroit Down
TTITLE3=Billy Ray Cyrus - Back to Tennessee
TTITLE4=Eric Church - Love Your Love The Most
TTITLE5=Chris Cummings - Welcome Back
TTITLE6=Randy Houser - Boots On
TTITLE7=Holly Williams - Keep The Change
TTITLE8=Jonathan Singleton and The Grove - Livin' In Paradise
TTITLE9=Richie McDonald - How Do I Just Stop
TTITLE10=Jeremy McComb - Cold
TTITLE11=Point Of Grace - I Wish
TTITLE12=Wynonna - Sing
TTITLE13=Matt Stillwell - Shine
TTITLE14=Justin Moore - Small Town USA
TTITLE15=Trailer Choir - What Would You Say
TTITLE16=Gloriana - Wild At Heart
TTITLE17=Williams Riley - I'm Still Me
TTITLE18=Bomshel - Fight Like A Girl
TTITLE19=Jamey Johnson - High Cost Of Living
TTITLE20=Randy Owens with Megan Mullins - Holding Everything
EXTD=
EXTT0=
EXTT1=
EXTT2=
EXTT3=
EXTT4=
EXTT5=
EXTT6=
EXTT7=
EXTT8=
EXTT9=
EXTT10=
EXTT11=
EXTT12=
EXTT13=
EXTT14=
EXTT15=
EXTT16=
EXTT17=
EXTT18=
EXTT19=
EXTT20=
PLAYORDER=
